<svg width="442" height="61" viewBox="0 0 442 61" fill="none" xmlns="http://www.w3.org/2000/svg">
<path d="M4.336 47.392C3.568 47.4347 2.928 47.072 2.416 46.304C1.904 45.536 1.66933 44.896 1.712 44.384C1.75467 43.7013 1.94667 42.72 2.288 41.44C2.62933 40.16 3.01333 38.8587 3.44 37.536C3.86667 36.2133 4.25067 35.168 4.592 34.4C4.76267 33.7173 4.912 33.12 5.04 32.608C5.21067 32.0533 5.31733 31.6907 5.36 31.52C5.488 31.3493 5.68 30.9013 5.936 30.176C6.23467 29.4507 6.46933 28.7467 6.64 28.064C6.72533 27.7227 6.896 27.0827 7.152 26.144C7.45067 25.1627 7.792 24.032 8.176 22.752C8.60267 21.472 9.008 20.2133 9.392 18.976C9.81867 17.7387 10.1813 16.6507 10.48 15.712C10.7787 14.7733 10.9707 14.1547 11.056 13.856C11.3973 13.344 11.6533 12.8533 11.824 12.384C11.9947 11.9147 12.1013 11.5947 12.144 11.424C12.4 11.2533 12.5493 11.04 12.592 10.784C12.6347 10.4853 12.656 10.2507 12.656 10.08C12.656 9.86666 12.72 9.696 12.848 9.568C13.0187 9.44 13.104 9.29067 13.104 9.12C13.2747 8.992 13.3813 8.97066 13.424 9.056C13.4667 9.14133 13.5947 9.07733 13.808 8.864L14.128 6.688L19.824 6.624C19.7387 7.136 19.6107 7.776 19.44 8.544C19.2693 9.26933 18.864 10.2507 18.224 11.488C18.0107 12.3413 17.7547 13.1093 17.456 13.792C17.2 14.4747 17.0933 14.9227 17.136 15.136C17.0507 15.2213 16.8587 15.648 16.56 16.416C16.304 17.184 15.984 18.1227 15.6 19.232C15.2587 20.3413 14.896 21.4507 14.512 22.56C14.1707 23.6693 13.8507 24.6507 13.552 25.504C13.296 26.3147 13.1253 26.8267 13.04 27.04C12.6987 27.7227 12.3147 28.7253 11.888 30.048C11.4613 31.3707 10.8213 33.1627 9.968 35.424C9.62667 36.1067 9.2 37.1307 8.688 38.496C8.21867 39.8613 7.83467 41.0987 7.536 42.208C7.06667 43.872 6.64 45.0667 6.256 45.792C5.91467 46.5173 5.59467 46.944 5.296 47.072C4.99733 47.2427 4.67733 47.3493 4.336 47.392ZM4.912 9.76C3.16267 9.93067 1.968 9.71733 1.328 9.12C0.730667 8.52267 0.517334 7.88266 0.688001 7.2C0.816 6.688 1.11467 6.26133 1.584 5.92C2.096 5.536 3.01333 5.216 4.336 4.96C4.80533 4.87466 5.40267 4.768 6.128 4.64C6.896 4.512 7.62133 4.384 8.304 4.256C9.712 4.08533 10.864 3.936 11.76 3.808C12.6987 3.68 13.6587 3.57333 14.64 3.488C15.6213 3.40266 16.8587 3.31733 18.352 3.232C19.5893 3.14666 20.6347 3.08266 21.488 3.04C22.384 2.95466 22.832 2.912 22.832 2.912C22.96 2.912 23.408 2.95466 24.176 3.04C24.944 3.12533 25.776 3.232 26.672 3.36C27.568 3.488 28.2293 3.63733 28.656 3.808C29.6373 4.02133 30.4267 4.40533 31.024 4.96C31.6213 5.51467 32.0053 6.15467 32.176 6.88C32.304 7.392 32.304 7.79733 32.176 8.096C32.048 8.352 31.8133 8.56533 31.472 8.736C30.4907 9.03467 29.68 9.29066 29.04 9.504C28.4427 9.67466 27.8453 9.65333 27.248 9.44C27.0347 9.22667 26.7787 9.03467 26.48 8.864C26.224 8.69333 25.7547 8.56533 25.072 8.48C24.432 8.352 23.408 8.24533 22 8.16C20.8053 8.288 19.76 8.352 18.864 8.352C17.968 8.352 17.52 8.45866 17.52 8.672L13.744 8.864L10.608 9.184C10.1813 9.22666 9.584 9.29066 8.816 9.376C8.048 9.41867 7.30133 9.48266 6.576 9.568C5.85067 9.61067 5.296 9.67467 4.912 9.76ZM29.4585 41.568C29.1598 41.6107 28.8185 41.504 28.4345 41.248C28.0932 40.9493 27.7732 40.6933 27.4745 40.48C27.0478 39.968 26.7492 39.52 26.5785 39.136C26.4078 38.752 26.3225 38.3253 26.3225 37.856C26.3225 37.3867 26.3652 36.832 26.4505 36.192C26.6638 35.5093 26.9198 34.592 27.2185 33.44C27.5172 32.288 27.8798 31.0507 28.3065 29.728C28.3918 29.216 28.5412 28.6187 28.7545 27.936C29.0105 27.2107 29.2665 26.528 29.5225 25.888C29.7785 25.2053 29.9705 24.6933 30.0985 24.352C30.3972 23.2853 30.6958 22.2613 30.9945 21.28C31.3358 20.2987 31.7412 19.168 32.2105 17.888C32.6798 16.608 33.2558 14.9867 33.9385 13.024C34.8772 10.464 35.5812 8.544 36.0505 7.264C36.5198 5.984 36.8612 5.06666 37.0745 4.512C37.2878 3.95733 37.4372 3.50933 37.5225 3.168C37.5225 2.82667 37.7572 2.50666 38.2265 2.208C38.7385 1.86666 39.1865 1.696 39.5705 1.696C40.1678 1.73867 40.7438 2.10133 41.2985 2.784C41.8532 3.424 42.2372 4.21333 42.4505 5.152C42.6638 6.048 42.5145 6.92266 42.0025 7.776C41.3198 9.312 40.6372 11.04 39.9545 12.96C39.3145 14.8373 38.6745 16.7147 38.0345 18.592C37.3945 20.4693 36.7545 22.1973 36.1145 23.776C36.0718 23.9893 35.9225 24.352 35.6665 24.864C35.4532 25.376 35.2612 25.8027 35.0905 26.144C34.9198 26.4853 34.7492 26.8053 34.5785 27.104C34.4505 27.4027 34.3865 27.552 34.3865 27.552C34.3438 27.808 34.2585 28.1707 34.1305 28.64C34.0025 29.1093 33.8745 29.5147 33.7465 29.856C33.7038 30.0693 33.6398 30.3467 33.5545 30.688C33.4692 31.0293 33.4052 31.3707 33.3625 31.712C33.5758 31.456 33.8745 31.1573 34.2585 30.816C34.6425 30.432 35.1332 29.9627 35.7305 29.408C36.4132 28.8107 37.0105 28.2987 37.5225 27.872C38.0345 27.4453 38.5465 27.0613 39.0585 26.72C39.5278 26.3787 39.9545 26.0587 40.3385 25.76C40.7652 25.4613 40.9785 25.312 40.9785 25.312C41.0638 25.184 41.1492 25.0347 41.2345 24.864C41.3625 24.6933 41.4905 24.5867 41.6185 24.544C41.7038 24.4587 41.8532 24.352 42.0665 24.224C42.2798 24.0533 42.4932 23.8827 42.7065 23.712C43.0905 23.456 43.4958 23.2427 43.9225 23.072C44.3492 22.9013 44.7972 22.7733 45.2665 22.688C45.7358 22.6027 46.1838 22.56 46.6105 22.56C47.1225 22.56 47.6558 22.7733 48.2105 23.2C48.7652 23.584 49.2772 24.1387 49.7465 24.864C50.1732 25.4187 50.4292 26.08 50.5145 26.848C50.6425 27.5733 50.6638 28.5547 50.5785 29.792C50.5785 30.1333 50.4718 30.7733 50.2585 31.712C50.0878 32.6507 49.9598 33.3547 49.8745 33.824L49.2985 36H49.8105C50.2798 35.8293 50.7278 35.808 51.1545 35.936C51.6238 36.064 51.8585 36.128 51.8585 36.128C52.0718 36.256 52.2638 36.4053 52.4345 36.576C52.6478 36.7467 52.8398 36.8747 53.0105 36.96C53.2665 37.3013 53.2238 37.792 52.8825 38.432C52.5412 39.072 52.1572 39.52 51.7305 39.776C50.7065 40.4587 49.7892 40.8853 48.9785 41.056C48.2105 41.2267 47.3998 41.0773 46.5465 40.608C45.7358 40.0533 45.1812 39.392 44.8825 38.624C44.6265 37.856 44.5198 36.8107 44.5625 35.488C44.7332 33.6107 44.8398 32.2667 44.8825 31.456C44.9252 30.6027 44.7118 30.176 44.2425 30.176C43.7305 30.176 43.0265 30.432 42.1305 30.944C41.2772 31.4133 40.3172 32.0747 39.2505 32.928C38.1838 33.7387 37.1172 34.656 36.0505 35.68C35.0265 36.6613 34.1092 37.664 33.2985 38.688C32.7865 39.328 32.2318 39.968 31.6345 40.608C31.0372 41.2053 30.3118 41.5253 29.4585 41.568ZM58.7485 42.656C58.5778 42.3147 58.1938 41.9733 57.5965 41.632C57.0418 41.2907 56.7645 41.0347 56.7645 40.864C56.7645 40.6933 56.6578 40.4373 56.4445 40.096C56.2738 39.712 56.1032 39.4347 55.9325 39.264C55.7192 39.008 55.7832 38.3893 56.1245 37.408C56.4658 36.384 56.9778 35.1467 57.6605 33.696C58.3432 32.2453 59.0898 30.7733 59.9005 29.28C60.2418 28.9387 60.5832 28.4907 60.9245 27.936C61.2658 27.3813 61.5218 27.0187 61.6925 26.848C61.6925 26.6773 61.7565 26.528 61.8845 26.4C62.0125 26.2293 62.1618 26.144 62.3325 26.144L62.8445 25.12C62.9298 24.9493 63.1858 24.608 63.6125 24.096C64.0818 23.584 64.6365 23.0293 65.2765 22.432C65.9165 21.792 66.5565 21.1947 67.1965 20.64C67.8792 20.0853 68.4338 19.68 68.8605 19.424C69.7565 18.8267 70.6738 18.5493 71.6125 18.592C72.5938 18.6347 73.4258 18.9333 74.1085 19.488C74.2365 19.616 74.5138 19.872 74.9405 20.256C75.4098 20.64 75.9218 21.0667 76.4765 21.536C77.0738 22.0053 77.5858 22.432 78.0125 22.816L80.3805 24.928L79.2925 28.128C78.7378 29.8347 78.5885 31.328 78.8445 32.608C79.1005 33.888 79.5058 34.9973 80.0605 35.936C80.2738 36.4053 80.5512 36.768 80.8925 37.024C81.2765 37.28 81.7672 37.4507 82.3645 37.536C82.7058 37.5787 83.0258 37.7067 83.3245 37.92C83.6232 38.1333 83.7725 38.4747 83.7725 38.944C83.7725 39.968 83.5805 40.7147 83.1965 41.184C82.8552 41.6107 82.4712 41.8667 82.0445 41.952C80.6365 42.1227 79.2925 41.9733 78.0125 41.504C76.7325 41.0347 75.5805 39.8187 74.5565 37.856C74.3858 37.6 74.1512 37.1307 73.8525 36.448C73.5965 35.7227 73.4472 35.2533 73.4045 35.04C73.2338 35.2533 72.9992 35.5307 72.7005 35.872C72.4445 36.1707 72.1885 36.448 71.9325 36.704C68.9032 39.776 66.3005 41.7813 64.1245 42.72C61.9912 43.616 60.1992 43.5947 58.7485 42.656ZM62.2685 37.344C62.5672 37.3867 63.0365 37.2373 63.6765 36.896C64.3165 36.512 65.1698 35.8933 66.2365 35.04C67.6872 33.8027 68.8818 32.7787 69.8205 31.968C70.7592 31.1573 71.6765 30.112 72.5725 28.832L73.9805 26.528C73.5538 25.5467 73.1698 24.9067 72.8285 24.608C72.4872 24.3093 72.1458 24.16 71.8045 24.16C71.2498 24.16 70.5885 24.5227 69.8205 25.248C69.0525 25.9307 68.1778 26.9547 67.1965 28.32C66.2578 29.6427 65.1912 31.3067 63.9965 33.312C63.4418 34.2507 63.0152 35.168 62.7165 36.064C62.4178 36.9173 62.2685 37.344 62.2685 37.344ZM83.727 60.448C82.7883 60.6187 82.1483 60.64 81.807 60.512C81.4657 60.384 80.9963 60.1707 80.399 59.872C79.9297 59.5307 79.5883 59.2747 79.375 59.104C79.1617 58.9333 79.0123 58.7627 78.927 58.592C78.5003 57.696 78.4363 57.0347 78.735 56.608C79.0337 56.1813 79.4603 55.904 80.015 55.776C80.6123 55.6907 81.1243 55.648 81.551 55.648C81.8497 55.8187 82.3403 55.904 83.023 55.904C83.7483 55.904 84.1963 55.8187 84.367 55.648C84.367 55.648 84.559 55.52 84.943 55.264C85.3697 55.0507 85.9243 54.88 86.607 54.752C87.9297 54.112 88.975 53.4507 89.743 52.768C90.511 52.128 91.3643 51.0187 92.303 49.44C92.687 48.8427 93.0923 48.1387 93.519 47.328C93.9457 46.56 94.2443 45.792 94.415 45.024C94.7563 44.1707 95.1403 43.0187 95.567 41.568C96.0363 40.1173 96.4417 38.688 96.783 37.28C97.1243 35.8293 97.3163 34.7413 97.359 34.016C97.615 31.6267 98.1057 29.3227 98.831 27.104C99.5563 24.8427 100.132 22.4533 100.559 19.936C100.815 19.3387 101.007 18.9973 101.135 18.912C101.263 18.784 101.54 18.72 101.967 18.72C102.436 18.72 102.991 18.8693 103.631 19.168C104.271 19.424 104.74 19.7867 105.039 20.256C105.466 21.0667 105.658 22.0267 105.615 23.136C105.615 24.2027 105.338 25.1413 104.783 25.952C104.356 26.5493 103.972 27.488 103.631 28.768C103.332 30.0053 103.034 31.5627 102.735 33.44C102.522 34.3787 102.287 35.488 102.031 36.768C101.818 38.0053 101.583 39.392 101.327 40.928C101.156 41.3547 100.922 42.016 100.623 42.912C100.324 43.7653 100.132 44.448 100.047 44.96C100.004 45.1307 99.8763 45.472 99.663 45.984C99.4497 46.496 99.2363 46.9867 99.023 47.456C98.8097 47.968 98.6603 48.3093 98.575 48.48C96.527 52.6187 94.159 55.6053 91.471 57.44C88.8257 59.2747 86.2443 60.2773 83.727 60.448ZM89.103 42.336C88.6337 42.336 88.143 42.08 87.631 41.568C87.1617 41.056 86.8417 40.6507 86.671 40.352C86.5003 39.9253 86.1803 39.52 85.711 39.136C85.2417 38.752 84.8363 38.2827 84.495 37.728C84.1537 37.1733 84.0683 36.4907 84.239 35.68C84.4097 35.1253 84.6657 34.2933 85.007 33.184C85.3483 32.032 85.7537 30.7733 86.223 29.408C86.6923 28 87.1617 26.6133 87.631 25.248C88.143 23.8827 88.6123 22.6667 89.039 21.6C89.4657 20.5333 89.8283 19.7867 90.127 19.36C90.383 19.0187 90.7883 18.7627 91.343 18.592C91.8977 18.4213 92.4523 18.3787 93.007 18.464C93.5617 18.5493 93.967 18.8053 94.223 19.232C94.6923 19.8293 94.9483 20.4267 94.991 21.024C95.0763 21.5787 94.7777 22.4747 94.095 23.712C93.9243 24.1813 93.711 24.6933 93.455 25.248C93.199 25.76 93.071 26.1013 93.071 26.272C93.0283 26.3573 92.943 26.656 92.815 27.168C92.7297 27.6373 92.623 28.0853 92.495 28.512C92.367 28.9387 92.239 29.152 92.111 29.152C91.9403 29.3227 91.7483 29.7707 91.535 30.496C91.3643 31.2213 91.1937 32.032 91.023 32.928C90.895 33.7813 90.8097 34.5493 90.767 35.232C90.7243 35.872 90.7883 36.192 90.959 36.192C92.2817 36.192 93.5617 35.7867 94.799 34.976C96.0363 34.1227 97.3803 32.7147 98.831 30.752L99.407 36.768C98.8097 37.0667 98.255 37.3867 97.743 37.728C97.231 38.0267 96.7617 38.3893 96.335 38.816C96.207 38.9867 95.9083 39.2213 95.439 39.52C94.9697 39.8187 94.5003 40.096 94.031 40.352C93.6043 40.5653 93.327 40.672 93.199 40.672C93.199 40.672 93.135 40.6933 93.007 40.736C92.9217 40.736 92.879 40.8213 92.879 40.992C92.879 41.0773 92.6017 41.248 92.047 41.504C91.4923 41.7173 90.9163 41.9093 90.319 42.08C89.7217 42.2507 89.3163 42.336 89.103 42.336ZM110.916 41.824C110.745 41.824 110.34 41.6747 109.7 41.376C109.06 41.0347 108.654 40.7787 108.484 40.608C108.185 40.2667 107.993 39.904 107.908 39.52C107.822 39.0933 107.78 38.2827 107.78 37.088C107.78 35.7227 108.057 34.1867 108.612 32.48C109.166 30.7307 110.105 28.4053 111.428 25.504L114.052 20.192C114.265 19.8933 114.457 19.6373 114.628 19.424C114.798 19.168 114.99 18.9333 115.204 18.72C115.289 18.72 115.396 18.72 115.524 18.72C115.694 18.72 115.822 18.7413 115.908 18.784C116.292 18.8267 116.889 19.0613 117.7 19.488C118.553 19.9147 119.065 20.5547 119.236 21.408C119.236 21.9627 119.15 22.624 118.98 23.392C118.809 24.1173 118.297 25.0773 117.444 26.272C117.102 26.6987 116.761 27.3173 116.42 28.128C116.121 28.9387 115.844 29.7067 115.588 30.432C115.545 30.5173 115.417 30.7307 115.204 31.072C115.033 31.3707 114.862 31.6907 114.692 32.032C114.521 32.3307 114.436 32.5227 114.436 32.608L114.18 33.184L116.932 30.496C118.852 28.576 120.473 27.2107 121.796 26.4C123.118 25.5893 124.228 25.248 125.124 25.376C126.062 25.504 126.809 26.0373 127.364 26.976C127.662 27.4027 127.876 27.872 128.004 28.384C128.132 28.8533 128.217 29.408 128.26 30.048C128.302 30.688 128.281 31.4987 128.196 32.48V36.128C129.006 35.9147 129.625 35.744 130.052 35.616C130.478 35.4453 130.905 35.296 131.332 35.168C131.673 35.0827 132.014 34.9973 132.356 34.912C132.74 34.8267 133.209 34.7627 133.764 34.72C133.721 35.2747 133.486 35.9573 133.06 36.768C132.633 37.5787 132.1 38.3893 131.46 39.2C130.862 40.0107 130.201 40.6933 129.476 41.248C128.793 41.8027 128.153 42.08 127.556 42.08C127.001 42.08 126.361 41.9093 125.636 41.568C124.91 41.184 124.292 40.4587 123.78 39.392C123.609 38.8373 123.438 38.1973 123.268 37.472C123.097 36.7467 123.012 35.9787 123.012 35.168V32.352C123.012 32.096 122.99 31.9253 122.948 31.84C122.948 31.712 122.926 31.648 122.884 31.648C122.713 31.648 122.158 32.096 121.22 32.992C120.324 33.888 119.406 34.8267 118.468 35.808C116.505 37.856 114.862 39.3707 113.54 40.352C112.26 41.3333 111.385 41.824 110.916 41.824ZM138.243 42.656C138.072 42.3147 137.688 41.9733 137.091 41.632C136.536 41.2907 136.259 41.0347 136.259 40.864C136.259 40.6933 136.152 40.4373 135.939 40.096C135.768 39.712 135.597 39.4347 135.427 39.264C135.213 39.008 135.277 38.3893 135.619 37.408C135.96 36.384 136.472 35.1467 137.155 33.696C137.837 32.2453 138.584 30.7733 139.395 29.28C139.736 28.9387 140.077 28.4907 140.419 27.936C140.76 27.3813 141.016 27.0187 141.187 26.848C141.187 26.6773 141.251 26.528 141.379 26.4C141.507 26.2293 141.656 26.144 141.827 26.144L142.339 25.12C142.424 24.9493 142.68 24.608 143.107 24.096C143.576 23.584 144.131 23.0293 144.771 22.432C145.411 21.792 146.051 21.1947 146.691 20.64C147.373 20.0853 147.928 19.68 148.355 19.424C149.251 18.8267 150.168 18.5493 151.107 18.592C152.088 18.6347 152.92 18.9333 153.603 19.488C153.731 19.616 154.008 19.872 154.435 20.256C154.904 20.64 155.416 21.0667 155.971 21.536C156.568 22.0053 157.08 22.432 157.507 22.816L159.875 24.928L158.787 28.128C158.232 29.8347 158.083 31.328 158.339 32.608C158.595 33.888 159 34.9973 159.555 35.936C159.768 36.4053 160.045 36.768 160.387 37.024C160.771 37.28 161.261 37.4507 161.859 37.536C162.2 37.5787 162.52 37.7067 162.819 37.92C163.117 38.1333 163.267 38.4747 163.267 38.944C163.267 39.968 163.075 40.7147 162.691 41.184C162.349 41.6107 161.965 41.8667 161.539 41.952C160.131 42.1227 158.787 41.9733 157.507 41.504C156.227 41.0347 155.075 39.8187 154.051 37.856C153.88 37.6 153.645 37.1307 153.347 36.448C153.091 35.7227 152.941 35.2533 152.899 35.04C152.728 35.2533 152.493 35.5307 152.195 35.872C151.939 36.1707 151.683 36.448 151.427 36.704C148.397 39.776 145.795 41.7813 143.619 42.72C141.485 43.616 139.693 43.5947 138.243 42.656ZM141.763 37.344C142.061 37.3867 142.531 37.2373 143.171 36.896C143.811 36.512 144.664 35.8933 145.731 35.04C147.181 33.8027 148.376 32.7787 149.315 31.968C150.253 31.1573 151.171 30.112 152.067 28.832L153.475 26.528C153.048 25.5467 152.664 24.9067 152.323 24.608C151.981 24.3093 151.64 24.16 151.299 24.16C150.744 24.16 150.083 24.5227 149.315 25.248C148.547 25.9307 147.672 26.9547 146.691 28.32C145.752 29.6427 144.685 31.3067 143.491 33.312C142.936 34.2507 142.509 35.168 142.211 36.064C141.912 36.9173 141.763 37.344 141.763 37.344ZM155.203 16.16C154.819 15.9467 154.563 15.4987 154.435 14.816C154.307 14.1333 154.285 13.4507 154.371 12.768C154.413 12.5547 154.691 12.128 155.203 11.488C155.757 10.8053 156.419 10.0587 157.187 9.248C157.997 8.43733 158.787 7.712 159.555 7.072C160.365 6.38933 161.027 5.984 161.539 5.856C162.136 5.81333 162.691 6.112 163.203 6.752C163.715 7.34933 163.992 8.096 164.035 8.992C164.035 9.46133 163.821 9.93067 163.395 10.4C162.968 10.8693 162.435 11.36 161.795 11.872C161.155 12.3413 160.493 12.8533 159.811 13.408C159.171 13.92 158.637 14.4533 158.211 15.008C157.784 15.6907 157.315 16.1387 156.803 16.352C156.291 16.5653 155.757 16.5013 155.203 16.16ZM184.24 47.84C184.069 48.2667 183.493 48.48 182.512 48.48C181.531 48.48 180.677 48.2027 179.952 47.648C179.44 47.136 179.099 46.7307 178.928 46.432C178.8 46.176 178.885 45.7067 179.184 45.024C179.483 44.384 179.995 43.232 180.72 41.568C180.891 40.544 181.189 39.52 181.616 38.496C182.043 37.4293 182.363 36.6827 182.576 36.256C182.747 35.6587 183.088 34.6773 183.6 33.312C184.155 31.904 184.773 30.3467 185.456 28.64C186.181 26.9333 186.864 25.3333 187.504 23.84C188.144 22.304 188.613 21.152 188.912 20.384C189.637 18.6773 190.384 16.8853 191.152 15.008C191.92 13.1307 192.965 10.7627 194.288 7.904C194.459 7.47733 194.395 7.02933 194.096 6.56C193.797 6.09067 193.285 5.856 192.56 5.856C192.133 5.38666 191.899 4.896 191.856 4.384C191.813 3.82933 192.027 3.44533 192.496 3.232L198.384 1.248C200.389 0.778665 202.437 0.650665 204.528 0.863998C206.661 1.03467 208.667 1.61067 210.544 2.592C212.592 3.78667 214.085 5.10933 215.024 6.56C215.963 8.01067 216.475 9.48267 216.56 10.976C216.688 12.4267 216.517 13.7493 216.048 14.944C215.707 15.84 215.045 16.8213 214.064 17.888C213.125 18.9547 212.016 20.0213 210.736 21.088C209.499 22.1547 208.197 23.136 206.832 24.032C205.509 24.8853 204.272 25.5467 203.12 26.016C202.053 26.528 200.859 27.0613 199.536 27.616C198.213 28.128 196.933 28.576 195.696 28.96C195.013 29.1307 194.203 29.216 193.264 29.216C192.325 29.216 191.621 29.1307 191.152 28.96L190.064 31.008C189.637 32.544 188.891 34.8267 187.824 37.856C186.8 40.8853 185.605 44.2133 184.24 47.84ZM209.648 49.056C209.307 49.184 208.731 49.2267 207.92 49.184C207.152 49.1413 206.277 48.8 205.296 48.16C203.419 47.0507 201.541 45.7067 199.664 44.128C197.787 42.5493 195.675 40.416 193.328 37.728C192.432 36.6613 191.749 35.5947 191.28 34.528C190.853 33.4613 190.299 32.1173 189.616 30.496L188.72 27.04L191.152 25.44L193.968 27.744C194.651 29.2373 195.44 30.6667 196.336 32.032C197.275 33.3973 198.213 34.6133 199.152 35.68C199.92 36.576 200.965 37.664 202.288 38.944C203.611 40.1813 205.019 41.376 206.512 42.528C208.005 43.68 209.349 44.5547 210.544 45.152C210.8 45.3653 210.864 45.7707 210.736 46.368C210.651 47.008 210.48 47.6053 210.224 48.16C210.011 48.7147 209.819 49.0133 209.648 49.056ZM193.52 23.968C194.501 23.8827 195.568 23.6267 196.72 23.2C197.915 22.7307 199.173 22.2187 200.496 21.664C201.733 21.0667 202.949 20.4267 204.144 19.744C205.381 19.0187 206.491 18.2293 207.472 17.376C208.496 16.5227 209.285 15.6053 209.84 14.624C210.437 13.6427 210.693 12.5973 210.608 11.488C210.608 10.9333 210.437 10.3147 210.096 9.632C209.755 8.94933 209.307 8.33066 208.752 7.776C208.24 7.22133 207.707 6.85866 207.152 6.688C205.445 6.26133 204.144 6.00533 203.248 5.92C202.352 5.83467 201.691 5.96267 201.264 6.304C200.88 6.64533 200.581 7.24266 200.368 8.096C200.368 8.224 200.197 8.62933 199.856 9.312C199.515 9.99466 199.088 10.8693 198.576 11.936C198.107 12.96 197.637 14.0693 197.168 15.264C195.931 17.7813 195.013 19.6373 194.416 20.832C193.861 21.984 193.52 22.752 193.392 23.136C193.307 23.52 193.349 23.7973 193.52 23.968ZM215.405 42.912C215.063 42.5707 214.807 42.0587 214.637 41.376C214.509 40.6933 214.466 40.032 214.509 39.392C214.551 38.7093 214.658 38.1973 214.829 37.856C214.829 37.5147 214.871 37.2587 214.957 37.088C215.085 36.8747 215.127 36.6827 215.085 36.512C215.042 36.3413 215.085 36.0427 215.213 35.616C215.341 35.1893 215.469 34.784 215.597 34.4C215.895 33.7173 216.237 32.8427 216.621 31.776C217.005 30.6667 217.389 29.5573 217.773 28.448C218.157 27.296 218.477 26.3147 218.733 25.504C218.989 24.6507 219.138 24.1387 219.181 23.968C219.181 23.456 219.522 23.1787 220.205 23.136C220.717 22.9653 221.335 23.1787 222.061 23.776C222.786 24.3733 223.362 25.0133 223.789 25.696C224.13 26.0373 224.258 26.4853 224.173 27.04C224.087 27.5947 223.81 28.384 223.341 29.408C223.17 29.7493 222.957 30.3253 222.701 31.136C222.487 31.904 222.338 32.544 222.253 33.056C222.082 33.3973 221.869 33.888 221.613 34.528C221.399 35.1253 221.207 35.7013 221.037 36.256C220.951 36.4693 220.866 36.8747 220.781 37.472C220.695 38.0267 220.589 38.6027 220.461 39.2C220.333 39.7973 220.162 40.2667 219.949 40.608C219.565 42.3573 218.882 43.3813 217.901 43.68C216.962 43.9787 216.13 43.7227 215.405 42.912ZM222.317 17.248C221.847 16.9067 221.485 16.5013 221.229 16.032C221.015 15.52 220.887 15.072 220.845 14.688C220.845 14.304 220.887 14.0693 220.973 13.984C221.399 13.5147 221.762 12.896 222.061 12.128C222.402 11.36 222.765 10.656 223.149 10.016C223.234 9.888 223.341 9.71733 223.469 9.504C223.639 9.248 223.81 9.09867 223.981 9.056C224.493 8.71467 225.197 8.736 226.093 9.12C227.031 9.504 227.714 10.0373 228.141 10.72C228.525 11.5307 228.631 12.3627 228.461 13.216C228.333 14.0693 227.885 14.9653 227.117 15.904C226.477 16.7573 225.666 17.312 224.685 17.568C223.703 17.7813 222.914 17.6747 222.317 17.248ZM234.239 45.152C231.892 45.152 230.079 44.4693 228.799 43.104C227.562 41.7387 226.943 39.648 226.943 36.832C226.943 35.296 227.22 33.6107 227.775 31.776C228.372 29.9413 229.14 28.1493 230.079 26.4C231.06 24.6507 232.127 23.136 233.279 21.856C234.431 20.5333 235.583 19.616 236.735 19.104C237.162 18.8907 237.61 18.7413 238.079 18.656C238.591 18.528 239.082 18.464 239.551 18.464C240.063 18.464 240.618 18.5067 241.215 18.592C241.855 18.6347 242.452 18.7627 243.007 18.976C243.988 19.2747 244.842 19.8507 245.567 20.704C246.335 21.5573 246.719 22.7947 246.719 24.416C246.719 24.8427 246.676 25.312 246.591 25.824C246.506 26.2933 246.356 26.7627 246.143 27.232C245.588 28.64 244.735 29.984 243.583 31.264C242.474 32.544 241.3 33.44 240.063 33.952C239.722 34.1227 239.38 34.2507 239.039 34.336C238.74 34.3787 238.42 34.4 238.079 34.4C237.183 34.4 236.372 34.272 235.647 34.016C234.964 33.76 234.324 33.4187 233.727 32.992L233.215 32.544L232.895 33.184C232.596 33.9947 232.383 34.6773 232.255 35.232C232.17 35.7867 232.127 36.192 232.127 36.448C232.127 36.96 232.148 37.4933 232.191 38.048C232.234 38.56 232.362 38.9867 232.575 39.328C232.746 39.5413 232.959 39.712 233.215 39.84C233.514 39.968 233.876 40.032 234.303 40.032C234.559 40.032 234.794 40.032 235.007 40.032C235.263 39.9893 235.476 39.9467 235.647 39.904C236.415 39.7333 237.034 39.456 237.503 39.072C238.015 38.6453 238.548 38.2827 239.103 37.984L239.359 37.856L239.295 37.664C240.02 37.28 240.511 37.0453 240.767 36.96C241.023 36.832 241.215 36.7253 241.343 36.64C241.514 36.4693 241.706 36.384 241.919 36.384C242.516 36.2987 243.092 36.4693 243.647 36.896C244.244 37.28 244.543 37.7707 244.543 38.368C244.543 38.624 244.351 39.0293 243.967 39.584C243.626 40.1387 243.178 40.6933 242.623 41.248C242.111 41.76 241.578 42.1653 241.023 42.464C240.895 42.5067 240.767 42.5707 240.639 42.656C240.511 42.6987 240.383 42.7627 240.255 42.848H240.319C239.935 43.36 239.551 43.616 239.167 43.616H238.655C238.484 43.9147 237.93 44.2347 236.991 44.576C236.052 44.96 235.135 45.152 234.239 45.152ZM237.567 29.728C237.951 29.728 238.292 29.664 238.591 29.536C238.932 29.408 239.252 29.2587 239.551 29.088C240.575 28.3627 241.236 27.424 241.535 26.272C241.834 25.12 241.727 24.2453 241.215 23.648C241.13 23.52 241.023 23.4347 240.895 23.392C240.767 23.3067 240.618 23.264 240.447 23.264C239.978 23.264 239.444 23.4133 238.847 23.712C238.292 24.0107 237.738 24.4373 237.183 24.992C236.628 25.5467 236.116 26.208 235.647 26.976L234.815 28.32C234.9 28.2773 234.964 28.256 235.007 28.256C235.092 28.2133 235.156 28.192 235.199 28.192C235.583 28.192 235.839 28.32 235.967 28.576C236.095 28.832 236.244 29.088 236.415 29.344C236.628 29.6 237.012 29.728 237.567 29.728ZM265.674 47.264C265.29 47.0933 264.842 46.752 264.33 46.24C263.477 45.5147 262.901 44.5973 262.602 43.488C262.346 42.336 262.325 41.2267 262.538 40.16C263.05 38.88 263.605 38.0053 264.202 37.536C264.842 37.024 265.503 36.8107 266.186 36.896C266.911 36.9387 267.594 37.1947 268.234 37.664C267.935 38.56 267.701 39.3707 267.53 40.096C267.359 40.8213 267.423 41.44 267.722 41.952C268.021 42.464 268.725 42.8693 269.834 43.168C270.687 43.2533 271.413 43.296 272.01 43.296C272.65 43.2533 273.397 43.2107 274.25 43.168C275.231 43.0827 275.999 42.976 276.554 42.848C277.151 42.72 277.685 42.592 278.154 42.464C279.349 42.1227 280.373 41.6533 281.226 41.056C282.079 40.416 282.783 39.6907 283.338 38.88C283.679 38.2827 283.914 37.7493 284.042 37.28C284.17 36.768 284.234 36.2347 284.234 35.68C284.234 35.04 284.17 34.4853 284.042 34.016C283.914 33.504 283.679 32.9067 283.338 32.224C283.039 31.4987 282.549 30.496 281.866 29.216C281.823 28.9173 281.482 28.4053 280.842 27.68C280.245 26.9547 279.647 26.2507 279.05 25.568C278.751 24.8853 278.367 24.1173 277.898 23.264C277.429 22.368 276.895 21.728 276.298 21.344C276.127 21.088 275.935 20.6827 275.722 20.128C275.551 19.5733 275.402 19.2747 275.274 19.232C275.274 19.232 275.21 19.1253 275.082 18.912C274.997 18.6987 274.89 18.4427 274.762 18.144C274.207 16.9067 274.186 15.3707 274.698 13.536C275.21 11.6587 276.149 9.90933 277.514 8.288C277.983 7.52 278.581 6.752 279.306 5.984C280.031 5.17333 280.693 4.512 281.29 4C281.93 3.44533 282.335 3.168 282.506 3.168C282.506 3.168 282.634 3.12533 282.89 3.04C283.189 2.912 283.551 2.69867 283.978 2.4C284.447 2.10133 284.895 1.86667 285.322 1.696C285.749 1.48267 286.367 1.29067 287.178 1.12L287.562 1.056L287.818 0.991997C288.543 0.778664 289.141 0.629331 289.61 0.543999C290.079 0.415998 290.527 0.351997 290.954 0.351997C291.381 0.351997 291.893 0.37333 292.49 0.415997C294.41 0.927998 295.882 1.632 296.906 2.528C297.973 3.38133 298.549 4.93866 298.634 7.2L298.122 8.992L297.034 10.208C296.906 10.1653 296.565 10.2933 296.01 10.592C295.498 10.8907 294.773 11.1253 293.834 11.296C292.938 11.424 291.786 11.2107 290.378 10.656C290.207 10.6133 290.143 10.5067 290.186 10.336C290.229 10.1227 290.399 9.99467 290.698 9.952C290.826 9.86666 291.018 9.67466 291.274 9.376C291.573 9.07733 291.85 8.736 292.106 8.352C292.661 7.584 292.789 7.008 292.49 6.624C292.234 6.19733 291.722 5.984 290.954 5.984C289.503 6.02666 288.117 6.304 286.794 6.816C285.471 7.28533 284.255 8.13866 283.146 9.376C282.25 10.528 281.589 11.552 281.162 12.448C280.735 13.3013 280.522 14.0907 280.522 14.816C280.607 15.1147 280.65 15.5627 280.65 16.16C280.693 16.7147 280.863 17.2907 281.162 17.888C282.57 19.8507 283.658 21.3653 284.426 22.432C285.237 23.4987 285.791 24.2667 286.09 24.736C286.175 24.864 286.239 24.9707 286.282 25.056C286.325 25.1413 286.346 25.2267 286.346 25.312C286.517 25.6107 286.751 26.0373 287.05 26.592C287.349 27.1467 287.626 27.68 287.882 28.192C288.138 28.704 288.266 29.0453 288.266 29.216C288.266 29.216 288.33 29.344 288.458 29.6C288.586 29.8133 288.735 30.1333 288.906 30.56C289.119 30.944 289.311 31.4987 289.482 32.224C289.695 32.9067 289.866 33.6533 289.994 34.464C290.122 35.232 290.186 35.936 290.186 36.576C290.186 37.088 290.058 37.7493 289.802 38.56C289.546 39.328 289.205 40.1173 288.778 40.928C288.394 41.696 287.903 42.336 287.306 42.848C286.709 43.36 285.834 43.9787 284.682 44.704C283.53 45.4293 282.271 46.0907 280.906 46.688C279.541 47.2853 278.218 47.6907 276.938 47.904C275.658 48.1173 274.442 48.288 273.29 48.416C272.181 48.544 271.135 48.5867 270.154 48.544C269.215 48.544 268.362 48.4373 267.594 48.224C266.826 48.0107 266.186 47.6907 265.674 47.264ZM298.834 41.568C298.535 41.6107 298.194 41.504 297.81 41.248C297.468 40.9493 297.148 40.6933 296.85 40.48C296.423 39.968 296.124 39.52 295.954 39.136C295.783 38.752 295.698 38.3253 295.698 37.856C295.698 37.3867 295.74 36.832 295.826 36.192C296.039 35.5093 296.295 34.592 296.594 33.44C296.892 32.288 297.255 31.0507 297.682 29.728C297.767 29.216 297.916 28.6187 298.13 27.936C298.386 27.2107 298.642 26.528 298.898 25.888C299.154 25.2053 299.346 24.6933 299.474 24.352C299.772 23.2853 300.071 22.2613 300.37 21.28C300.711 20.2987 301.116 19.168 301.586 17.888C302.055 16.608 302.631 14.9867 303.314 13.024C304.252 10.464 304.956 8.544 305.426 7.264C305.895 5.984 306.236 5.06666 306.45 4.512C306.663 3.95733 306.812 3.50933 306.898 3.168C306.898 2.82667 307.132 2.50666 307.602 2.208C308.114 1.86666 308.562 1.696 308.946 1.696C309.543 1.73867 310.119 2.10133 310.674 2.784C311.228 3.424 311.612 4.21333 311.826 5.152C312.039 6.048 311.89 6.92266 311.378 7.776C310.695 9.312 310.012 11.04 309.33 12.96C308.69 14.8373 308.05 16.7147 307.41 18.592C306.77 20.4693 306.13 22.1973 305.49 23.776C305.447 23.9893 305.298 24.352 305.042 24.864C304.828 25.376 304.636 25.8027 304.466 26.144C304.295 26.4853 304.124 26.8053 303.954 27.104C303.826 27.4027 303.762 27.552 303.762 27.552C303.719 27.808 303.634 28.1707 303.506 28.64C303.378 29.1093 303.25 29.5147 303.122 29.856C303.079 30.0693 303.015 30.3467 302.93 30.688C302.844 31.0293 302.78 31.3707 302.738 31.712C302.951 31.456 303.25 31.1573 303.634 30.816C304.018 30.432 304.508 29.9627 305.106 29.408C305.788 28.8107 306.386 28.2987 306.898 27.872C307.41 27.4453 307.922 27.0613 308.434 26.72C308.903 26.3787 309.33 26.0587 309.714 25.76C310.14 25.4613 310.354 25.312 310.354 25.312C310.439 25.184 310.524 25.0347 310.61 24.864C310.738 24.6933 310.866 24.5867 310.994 24.544C311.079 24.4587 311.228 24.352 311.442 24.224C311.655 24.0533 311.868 23.8827 312.082 23.712C312.466 23.456 312.871 23.2427 313.298 23.072C313.724 22.9013 314.172 22.7733 314.642 22.688C315.111 22.6027 315.559 22.56 315.986 22.56C316.498 22.56 317.031 22.7733 317.586 23.2C318.14 23.584 318.652 24.1387 319.122 24.864C319.548 25.4187 319.804 26.08 319.89 26.848C320.018 27.5733 320.039 28.5547 319.954 29.792C319.954 30.1333 319.847 30.7733 319.634 31.712C319.463 32.6507 319.335 33.3547 319.25 33.824L318.674 36H319.186C319.655 35.8293 320.103 35.808 320.53 35.936C320.999 36.064 321.234 36.128 321.234 36.128C321.447 36.256 321.639 36.4053 321.81 36.576C322.023 36.7467 322.215 36.8747 322.386 36.96C322.642 37.3013 322.599 37.792 322.257 38.432C321.916 39.072 321.532 39.52 321.106 39.776C320.082 40.4587 319.164 40.8853 318.354 41.056C317.586 41.2267 316.775 41.0773 315.922 40.608C315.111 40.0533 314.556 39.392 314.258 38.624C314.002 37.856 313.895 36.8107 313.938 35.488C314.108 33.6107 314.215 32.2667 314.258 31.456C314.3 30.6027 314.087 30.176 313.618 30.176C313.106 30.176 312.402 30.432 311.506 30.944C310.652 31.4133 309.692 32.0747 308.626 32.928C307.559 33.7387 306.492 34.656 305.426 35.68C304.402 36.6613 303.484 37.664 302.674 38.688C302.162 39.328 301.607 39.968 301.01 40.608C300.412 41.2053 299.687 41.5253 298.834 41.568ZM328.572 41.888C328.401 41.888 328.038 41.76 327.484 41.504C326.929 41.248 326.652 41.12 326.652 41.12C326.652 40.9493 326.588 40.736 326.46 40.48C326.374 40.224 326.332 40.0107 326.332 39.84C326.033 39.6693 325.734 39.392 325.436 39.008C325.137 38.624 325.073 38.1973 325.244 37.728C325.5 37.2587 325.841 36.5547 326.268 35.616C326.737 34.6347 327.228 33.5467 327.74 32.352C328.294 31.1147 328.806 29.92 329.276 28.768C329.745 27.616 330.15 26.6347 330.492 25.824C330.833 24.9707 331.025 24.4587 331.068 24.288C331.068 24.1173 331.089 23.8187 331.132 23.392C331.217 22.9653 331.494 22.6027 331.964 22.304C332.518 21.92 333.094 21.8987 333.692 22.24C334.289 22.5813 334.801 23.1787 335.228 24.032C335.654 24.8427 335.868 25.8027 335.868 26.912C335.868 27.2107 335.654 27.9787 335.228 29.216C334.801 30.4107 334.225 31.84 333.5 33.504C332.817 35.168 332.049 36.8533 331.196 38.56C330.556 39.7973 330.065 40.672 329.724 41.184C329.425 41.6533 329.041 41.888 328.572 41.888ZM337.276 17.376C336.764 17.376 336.145 17.1413 335.42 16.672C334.737 16.2027 334.118 15.6053 333.564 14.88C333.009 14.1547 332.732 13.3867 332.732 12.576C332.732 12.3627 332.924 11.9787 333.308 11.424C333.692 10.8267 334.054 10.2507 334.396 9.696C334.78 9.14133 334.972 8.82133 334.972 8.736C335.313 8.736 335.718 8.8 336.188 8.928C336.657 9.056 337.041 9.20533 337.34 9.376C337.809 10.4427 338.428 11.36 339.196 12.128C339.964 12.8533 340.348 13.6853 340.348 14.624C340.348 15.5627 340.113 16.2667 339.644 16.736C339.174 17.1627 338.385 17.376 337.276 17.376ZM359.566 43.744C358.926 43.744 358.307 43.552 357.71 43.168C357.113 42.7413 356.622 42.1653 356.238 41.44C355.854 40.672 355.662 39.776 355.662 38.752C355.662 38.112 355.769 37.216 355.982 36.064C356.238 34.8693 356.601 33.376 357.07 31.584C357.155 30.9867 357.219 30.6027 357.262 30.432C357.347 30.2613 357.39 30.0907 357.39 29.92C357.39 29.8347 357.369 29.7707 357.326 29.728C357.326 29.6427 357.283 29.6 357.198 29.6C356.857 29.6 356.387 29.8347 355.79 30.304C355.235 30.7307 354.595 31.2427 353.87 31.84C353.742 31.9253 353.593 32.032 353.422 32.16C353.294 32.288 353.145 32.416 352.974 32.544C352.846 32.672 352.697 32.8 352.526 32.928C352.099 33.184 351.438 33.6747 350.542 34.4C349.689 35.1253 348.793 35.8933 347.854 36.704C346.958 37.5147 346.169 38.1973 345.486 38.752C345.145 39.008 344.846 39.2213 344.59 39.392C344.377 39.5627 344.227 39.648 344.142 39.648C344.057 39.648 343.715 39.5413 343.118 39.328C342.563 39.072 342.009 38.7307 341.454 38.304C340.942 37.8347 340.686 37.3013 340.686 36.704C340.686 36.32 340.835 35.552 341.134 34.4C341.475 33.248 341.945 31.8827 342.542 30.304C343.139 28.7253 343.822 27.1253 344.59 25.504C344.761 25.12 344.889 24.608 344.974 23.968C345.059 23.328 345.145 22.7093 345.23 22.112C345.358 21.472 345.571 21.0027 345.87 20.704C345.998 20.4907 346.147 20.3413 346.318 20.256C346.531 20.128 346.745 20.064 346.958 20.064C347.385 20.064 347.79 20.1707 348.174 20.384C348.558 20.5547 348.921 20.8533 349.262 21.28C349.902 21.9627 350.243 22.7733 350.286 23.712C350.371 24.608 350.307 25.4827 350.094 26.336C349.881 27.1893 349.646 27.8933 349.39 28.448C349.134 28.96 349.006 29.1733 349.006 29.088C349.177 29.0027 349.411 28.7893 349.71 28.448C350.051 28.1067 350.627 27.7013 351.438 27.232C352.547 26.3787 353.401 25.7813 353.998 25.44C354.595 25.056 355.043 24.7787 355.342 24.608C355.683 24.4373 355.982 24.2453 356.238 24.032C356.451 23.8613 356.601 23.7547 356.686 23.712C356.814 23.6693 356.878 23.648 356.878 23.648C357.006 23.648 357.219 23.5627 357.518 23.392C357.859 23.2213 358.179 23.136 358.478 23.136C358.905 23.136 359.353 23.2427 359.822 23.456C360.291 23.6267 360.697 23.8827 361.038 24.224C361.379 24.5227 361.55 24.8427 361.55 25.184C361.55 25.312 361.593 25.4187 361.678 25.504C361.763 25.5893 361.849 25.696 361.934 25.824C362.147 26.08 362.382 26.4427 362.638 26.912C362.937 27.3387 363.086 28.0427 363.086 29.024C363.086 29.7067 362.937 30.7093 362.638 32.032C362.339 33.3547 362.019 34.656 361.678 35.936C361.337 37.2587 361.166 38.3253 361.166 39.136C361.209 39.904 361.294 40.5013 361.422 40.928C361.55 41.312 361.614 41.632 361.614 41.888C361.614 42.2293 361.443 42.6347 361.102 43.104C360.761 43.5307 360.249 43.744 359.566 43.744ZM372.877 43.552C372.322 43.552 371.874 43.4453 371.533 43.232C371.234 43.0187 370.85 42.72 370.381 42.336C369.57 41.4827 368.909 40.5653 368.397 39.584C367.928 38.6027 367.757 37.7493 367.885 37.024C368.013 36.6827 368.056 36.3627 368.013 36.064C368.013 35.7227 368.013 35.552 368.013 35.552C367.8 35.3387 367.736 35.2107 367.821 35.168C367.906 35.0827 367.992 34.9547 368.077 34.784C368.333 34.784 368.418 34.5493 368.333 34.08C368.248 33.7387 368.376 33.0133 368.717 31.904C369.101 30.752 369.613 29.664 370.253 28.64C370.509 28.2133 370.893 27.6587 371.405 26.976C371.917 26.2507 372.472 25.5467 373.069 24.864C373.709 24.1387 374.285 23.5627 374.797 23.136C375.864 22.24 376.845 21.5147 377.741 20.96C378.68 20.4053 379.618 20.0213 380.557 19.808C381.496 19.5947 382.456 19.488 383.437 19.488C384.461 19.488 385.293 19.8293 385.933 20.512C386.914 20.9387 387.597 21.5147 387.981 22.24C388.408 22.9653 388.685 23.904 388.813 25.056C388.941 26.336 388.813 27.9147 388.429 29.792C388.045 31.6267 387 33.76 385.293 36.192C384.226 37.728 383.181 38.9227 382.157 39.776C381.133 40.6293 380.002 41.4187 378.765 42.144C377.869 42.7413 376.909 43.104 375.885 43.232C374.861 43.36 373.858 43.4667 372.877 43.552ZM379.405 35.744C380.344 34.9333 381.005 34.0373 381.389 33.056C381.816 32.0747 382.264 30.9227 382.733 29.6C382.904 29.344 383.01 28.9173 383.053 28.32C383.138 27.7227 383.16 27.1467 383.117 26.592C383.074 25.9947 382.925 25.6533 382.669 25.568C382.285 25.2693 381.901 25.2053 381.517 25.376C381.133 25.504 380.642 25.7813 380.045 26.208C378.765 27.2747 377.57 28.512 376.461 29.92C375.394 31.2853 374.648 32.9707 374.221 34.976C374.093 36.0427 374.2 36.8533 374.541 37.408C374.925 37.92 375.522 38.0693 376.333 37.856C377.186 37.6 378.21 36.896 379.405 35.744ZM408.161 44.768C407.691 44.9387 407.158 45.024 406.561 45.024C406.006 45.0667 405.366 44.8107 404.641 44.256C404.214 43.7867 403.915 43.296 403.745 42.784C403.617 42.272 403.553 41.4827 403.553 40.416C403.638 39.776 403.809 38.8587 404.065 37.664C404.321 36.4267 404.598 35.1467 404.897 33.824C405.238 32.4587 405.537 31.2427 405.793 30.176C406.091 29.0667 406.326 28.32 406.497 27.936C406.795 26.912 406.859 26.272 406.689 26.016C406.518 25.76 406.006 25.6107 405.153 25.568C404.171 25.5253 403.147 25.9947 402.081 26.976C401.014 27.9573 399.798 29.5147 398.433 31.648C397.409 33.2267 396.79 34.528 396.577 35.552C396.363 36.5333 396.342 37.216 396.513 37.6C396.598 37.7707 396.747 37.8773 396.961 37.92C397.217 37.92 397.515 37.856 397.857 37.728C398.241 37.6 398.646 37.4293 399.073 37.216C399.371 37.0453 399.734 36.8747 400.161 36.704C400.63 36.4907 401.078 36.2987 401.505 36.128C401.761 36.128 401.931 36.2773 402.017 36.576C402.145 36.8747 402.208 37.2373 402.208 37.664C402.208 37.8347 402.251 38.1547 402.337 38.624C402.465 39.0933 402.678 39.4133 402.977 39.584C403.147 39.7547 402.785 40.1173 401.889 40.672C401.035 41.184 399.926 41.824 398.561 42.592C397.281 42.8907 396.321 43.04 395.681 43.04C395.083 43.04 394.422 42.7627 393.697 42.208C392.502 41.4827 391.734 40.1387 391.393 38.176C391.094 36.2133 391.35 34.0373 392.161 31.648C392.971 29.728 393.867 28.0853 394.849 26.72C395.873 25.312 396.939 24.032 398.049 22.88C398.219 22.7093 398.753 22.368 399.649 21.856C400.545 21.344 401.462 20.9387 402.401 20.64C403.467 20.2987 404.363 20.1707 405.089 20.256C405.857 20.2987 406.582 20.5547 407.265 21.024C408.033 21.1947 408.545 21.1733 408.801 20.96C409.099 20.7467 409.441 20.1493 409.825 19.168C410.593 17.0347 411.403 14.88 412.257 12.704C413.11 10.4853 414.006 8.24533 414.945 5.984C415.371 5.17333 415.627 4.55466 415.713 4.128C415.841 3.65867 415.99 3.33867 416.161 3.168L417.953 2.592C418.422 2.464 418.955 2.67733 419.553 3.232C420.193 3.78667 420.598 4.32 420.769 4.832C420.769 5.216 420.598 6.06933 420.257 7.392C419.915 8.672 419.361 10.208 418.593 12C417.91 13.5787 417.227 15.1787 416.545 16.8C415.905 18.3787 415.286 20.064 414.689 21.856C414.219 23.1787 413.793 24.2453 413.409 25.056C413.025 25.8667 412.769 26.5707 412.641 27.168C412.385 28.2773 412.065 29.28 411.681 30.176C411.339 31.0293 411.105 31.6267 410.977 31.968C410.422 33.5893 409.995 34.9333 409.697 36C409.398 37.024 409.206 37.92 409.121 38.688C409.035 39.4133 409.014 40.1387 409.057 40.864C409.099 41.5467 409.185 42.336 409.313 43.232C409.313 43.4027 409.185 43.6587 408.929 44C408.715 44.2987 408.459 44.5547 408.161 44.768ZM423.159 43.104C422.817 43.1893 422.369 43.232 421.815 43.232C421.26 43.1893 420.769 43.1253 420.343 43.04C419.959 42.912 419.767 42.784 419.767 42.656C419.767 42.4427 419.66 42.336 419.447 42.336C419.447 42.336 419.212 42.1653 418.743 41.824C418.273 41.44 417.847 41.1627 417.463 40.992C417.079 40.3947 416.823 39.712 416.695 38.944C416.609 38.1333 416.865 36.7253 417.463 34.72C417.505 33.3547 417.889 31.9253 418.615 30.432C419.34 28.896 420.257 27.4027 421.367 25.952C422.476 24.5013 423.628 23.2213 424.823 22.112C426.017 20.96 427.084 20.1067 428.023 19.552C428.62 18.9547 429.409 18.6347 430.391 18.592C431.415 18.5493 432.311 18.7413 433.079 19.168C433.505 19.3813 433.975 19.808 434.487 20.448C434.999 21.088 435.489 21.7707 435.959 22.496C436.428 23.1787 436.791 23.7973 437.047 24.352C437.175 24.8213 437.281 25.248 437.367 25.632C437.495 25.9733 437.58 26.4 437.623 26.912C437.665 27.424 437.623 28.192 437.495 29.216C437.281 29.984 437.089 30.7733 436.919 31.584C436.791 32.352 436.727 33.1413 436.727 33.952C436.641 34.7627 436.727 35.3387 436.983 35.68C437.281 36.0213 437.708 36.0427 438.263 35.744C438.775 35.488 439.308 35.4667 439.863 35.68C440.417 35.8507 440.801 36.192 441.015 36.704C441.271 37.1733 441.207 37.792 440.823 38.56C440.567 39.1147 440.161 39.648 439.607 40.16C439.052 40.672 438.433 41.0987 437.751 41.44C437.068 41.7387 436.407 41.888 435.767 41.888C435.297 41.888 434.828 41.7173 434.359 41.376C433.889 40.992 433.463 40.48 433.079 39.84C432.695 39.2 432.375 38.496 432.119 37.728L431.735 36.256L429.431 38.368C428.876 38.9653 428.321 39.52 427.767 40.032C427.255 40.5013 426.935 40.8427 426.807 41.056C426.593 41.44 426.167 41.7813 425.527 42.08C424.929 42.3787 424.14 42.72 423.159 43.104ZM424.887 36.96C425.612 36.5333 426.231 36.0213 426.743 35.424C427.297 34.8267 427.831 34.1653 428.343 33.44C428.855 32.672 429.409 31.8613 430.007 31.008C430.732 30.0267 431.244 29.2373 431.543 28.64C431.884 28.0427 432.14 27.4027 432.311 26.72C432.14 26.2507 431.905 25.76 431.607 25.248C431.308 24.6933 431.009 24.3947 430.711 24.352C430.113 24.352 429.388 24.7147 428.535 25.44C427.724 26.1653 426.828 27.2107 425.847 28.576C425.676 28.7893 425.463 29.1307 425.207 29.6C424.951 30.0693 424.695 30.5173 424.439 30.944C424.225 31.328 424.076 31.584 423.991 31.712C423.863 31.8827 423.671 32.288 423.415 32.928C423.201 33.5253 423.009 34.144 422.839 34.784C422.668 35.3813 422.583 35.808 422.583 36.064C422.583 36.32 422.604 36.5973 422.647 36.896C422.732 37.1947 422.945 37.3867 423.287 37.472C423.628 37.5573 424.161 37.3867 424.887 36.96Z" fill="white"/>
</svg>
